<mxfile host="app.diagrams.net" agent="Mozilla/5.0 (Windows NT 10.0; Win64; x64) AppleWebKit/537.36 (KHTML, like Gecko) Chrome/131.0.0.0 Safari/537.36" version="24.9.3">
  <diagram name="Ejercicio 2" id="0">
    <mxGraphModel dx="1120" dy="434" grid="1" gridSize="10" guides="1" tooltips="1" connect="1" arrows="1" fold="1" page="1" pageScale="1" pageWidth="850" pageHeight="1100" math="0" shadow="0">
      <root>
        <mxCell id="0" />
        <mxCell id="1" parent="0" />
        <mxCell id="2" value="" style="shape=rectangle;whiteSpace=wrap;html=1;fillColor=#D9EAD3;strokeColor=#6AA84F;" parent="1" vertex="1">
          <mxGeometry x="50" y="50" width="200" height="150" as="geometry" />
        </mxCell>
        <mxCell id="3" value="PROFESORES" style="text;html=1;stroke=none;fillColor=#E6E6E6;" parent="2" vertex="1">
          <mxGeometry width="200" height="30" as="geometry" />
        </mxCell>
        <mxCell id="4" value="PK DNI" style="text;html=1;fillColor=#FFFFFF;" parent="2" vertex="1">
          <mxGeometry y="30" width="200" height="30" as="geometry" />
        </mxCell>
        <mxCell id="5" value="Nombre" style="text;html=1;fillColor=#FFFFFF;" parent="2" vertex="1">
          <mxGeometry y="60" width="200" height="30" as="geometry" />
        </mxCell>
        <mxCell id="6" value="Dirección" style="text;html=1;fillColor=#FFFFFF;" parent="2" vertex="1">
          <mxGeometry y="90" width="200" height="30" as="geometry" />
        </mxCell>
        <mxCell id="7" value="Teléfono" style="text;html=1;fillColor=#FFFFFF;" parent="2" vertex="1">
          <mxGeometry y="120" width="200" height="30" as="geometry" />
        </mxCell>
        <mxCell id="8" value="" style="shape=rectangle;whiteSpace=wrap;html=1;fillColor=#D9EAD3;strokeColor=#6AA84F;" parent="1" vertex="1">
          <mxGeometry x="630" y="30" width="200" height="120" as="geometry" />
        </mxCell>
        <mxCell id="9" value="MÓDULOS" style="text;html=1;stroke=none;fillColor=#E6E6E6;" parent="8" vertex="1">
          <mxGeometry width="200" height="30" as="geometry" />
        </mxCell>
        <mxCell id="10" value="PK Código" style="text;html=1;fillColor=#FFFFFF;" parent="8" vertex="1">
          <mxGeometry y="30" width="200" height="30" as="geometry" />
        </mxCell>
        <mxCell id="11" value="Nombre" style="text;html=1;fillColor=#FFFFFF;" parent="8" vertex="1">
          <mxGeometry y="60" width="200" height="30" as="geometry" />
        </mxCell>
        <mxCell id="12" value="FK DNI (Profesor)" style="text;html=1;fillColor=#FFFFFF;" parent="8" vertex="1">
          <mxGeometry y="90" width="200" height="30" as="geometry" />
        </mxCell>
        <mxCell id="13" value="" style="shape=rectangle;whiteSpace=wrap;html=1;fillColor=#D9EAD3;strokeColor=#6AA84F;" parent="1" vertex="1">
          <mxGeometry x="50" y="300" width="200" height="150" as="geometry" />
        </mxCell>
        <mxCell id="14" value="ALUMNOS" style="text;html=1;stroke=none;fillColor=#E6E6E6;" parent="13" vertex="1">
          <mxGeometry width="200" height="30" as="geometry" />
        </mxCell>
        <mxCell id="15" value="PK Nº Expediente" style="text;html=1;fillColor=#FFFFFF;" parent="13" vertex="1">
          <mxGeometry y="30" width="200" height="30" as="geometry" />
        </mxCell>
        <mxCell id="16" value="Nombre" style="text;html=1;fillColor=#FFFFFF;" parent="13" vertex="1">
          <mxGeometry y="60" width="200" height="30" as="geometry" />
        </mxCell>
        <mxCell id="17" value="Apellidos" style="text;html=1;fillColor=#FFFFFF;" parent="13" vertex="1">
          <mxGeometry y="90" width="200" height="30" as="geometry" />
        </mxCell>
        <mxCell id="18" value="Fecha Nacimiento" style="text;html=1;fillColor=#FFFFFF;" parent="13" vertex="1">
          <mxGeometry y="120" width="200" height="30" as="geometry" />
        </mxCell>
        <mxCell id="19" value="" style="shape=rectangle;whiteSpace=wrap;html=1;fillColor=#FFF2CC;strokeColor=#FFD966;" parent="1" vertex="1">
          <mxGeometry x="310" y="200" width="300" height="90" as="geometry" />
        </mxCell>
        <mxCell id="20" value="MATRÍCULAS" style="text;html=1;stroke=none;fillColor=#E6E6E6;" parent="19" vertex="1">
          <mxGeometry width="300" height="30" as="geometry" />
        </mxCell>
        <mxCell id="21" value="PK FK Nº Expediente (Alumno)" style="text;html=1;" parent="19" vertex="1">
          <mxGeometry y="30" width="300" height="30" as="geometry" />
        </mxCell>
        <mxCell id="22" value="PK FK Código (Módulo)" style="text;html=1;" parent="19" vertex="1">
          <mxGeometry y="60" width="300" height="30" as="geometry" />
        </mxCell>
        <mxCell id="23" value="" style="shape=rectangle;whiteSpace=wrap;html=1;fillColor=#D9EAD3;strokeColor=#6AA84F;" parent="1" vertex="1">
          <mxGeometry x="640" y="350" width="200" height="90" as="geometry" />
        </mxCell>
        <mxCell id="24" value="CURSOS" style="text;html=1;stroke=none;fillColor=#E6E6E6;" parent="23" vertex="1">
          <mxGeometry width="200" height="30" as="geometry" />
        </mxCell>
        <mxCell id="25" value="PK Código" style="text;html=1;fillColor=#FFFFFF;" parent="23" vertex="1">
          <mxGeometry y="30" width="200" height="30" as="geometry" />
        </mxCell>
        <mxCell id="26" value="FK Nº Expediente Delegado" style="text;html=1;fillColor=#FFFFFF;" parent="23" vertex="1">
          <mxGeometry y="60" width="200" height="30" as="geometry" />
        </mxCell>
        <mxCell id="bUgWv3HCtulHkMXxQwXp-28" style="edgeStyle=orthogonalEdgeStyle;rounded=0;orthogonalLoop=1;jettySize=auto;html=1;" parent="1" source="5" edge="1">
          <mxGeometry relative="1" as="geometry">
            <mxPoint x="630" y="68" as="targetPoint" />
            <Array as="points">
              <mxPoint x="280" y="125" />
              <mxPoint x="280" y="68" />
            </Array>
          </mxGeometry>
        </mxCell>
        <mxCell id="bUgWv3HCtulHkMXxQwXp-29" style="edgeStyle=orthogonalEdgeStyle;rounded=0;orthogonalLoop=1;jettySize=auto;html=1;entryX=0;entryY=0.25;entryDx=0;entryDy=0;" parent="1" source="16" target="22" edge="1">
          <mxGeometry relative="1" as="geometry" />
        </mxCell>
        <mxCell id="-mSAcjd4Xik4SxRNcXfH-26" style="edgeStyle=orthogonalEdgeStyle;rounded=0;orthogonalLoop=1;jettySize=auto;html=1;entryX=0;entryY=0.25;entryDx=0;entryDy=0;" parent="1" source="21" target="11" edge="1">
          <mxGeometry relative="1" as="geometry" />
        </mxCell>
        <mxCell id="-mSAcjd4Xik4SxRNcXfH-27" style="edgeStyle=orthogonalEdgeStyle;rounded=0;orthogonalLoop=1;jettySize=auto;html=1;entryX=0;entryY=0.25;entryDx=0;entryDy=0;exitX=1;exitY=0.25;exitDx=0;exitDy=0;" parent="1" source="11" target="26" edge="1">
          <mxGeometry relative="1" as="geometry">
            <Array as="points">
              <mxPoint x="840" y="98" />
              <mxPoint x="840" y="265" />
              <mxPoint x="620" y="265" />
              <mxPoint x="620" y="418" />
            </Array>
          </mxGeometry>
        </mxCell>
      </root>
    </mxGraphModel>
  </diagram>
</mxfile>
